<?xml version="1.0" encoding="UTF-8" standalone="no"?>
<!-- Created with Inkscape (http://www.inkscape.org/) -->
<svg id="svg2" xmlns:rdf="http://www.w3.org/1999/02/22-rdf-syntax-ns#" xmlns="http://www.w3.org/2000/svg" height="144.5mm" width="144.5mm" version="1.1" xmlns:cc="http://creativecommons.org/ns#" xmlns:xlink="http://www.w3.org/1999/xlink" viewBox="0 0 511.99998 511.99998" xmlns:dc="http://purl.org/dc/elements/1.1/">
 <metadata id="metadata7">
 <g id="layer1" transform="translate(-118.29 -244.93)">
  <g id="g3401">
   <path id="path3405" fill="#fff" d="m118.29 500.93v-256h256 256v256 256h-256-256v-256z"/>
   <path id="path3403" fill="#fefefe" d="m323.29 687.29c-16.201-1.1003-25.366-2.3698-27.58-3.82-2.0014-1.3114-2.4204-2.4128-2.4204-6.3627 0-4.7466 0.0592-4.8314 9.3565-13.415 5.1461-4.7508 10.106-10.217 11.022-12.147 0.9158-1.9299 2.0148-7.1263 2.4422-11.547l0.77709-8.0386-94.726-0.26482c-93.731-0.26204-94.754-0.28635-97.471-2.315-6.7533-5.0426-6.5433 0.49992-6.1554-162.45 0.19184-80.575 0.73225-147.85 1.2009-149.5 0.46867-1.65 1.3476-3.3306 1.9531-3.7347 0.60553-0.40408 114.28-0.73468 252.6-0.73468s252 0.3306 252.6 0.73468c0.60553 0.40408 1.486 2.0847 1.9565 3.7347 1.1725 4.1115 1.044 301.78-0.13273 307.47-0.66886 3.2342-1.6166 4.8212-3.4248 5.7353-1.9607 0.99114-22.634 1.2669-95.835 1.2785l-93.335 0.0147 0.71125 7.75c0.39119 4.2625 1.5102 9.3326 2.4867 11.267 0.97651 1.9343 6.0948 7.5743 11.374 12.533 9.0192 8.4721 9.5977 9.2557 9.5833 12.983-0.0259 6.7153-2.0196 8.013-14.686 9.5594-8.3358 1.0177-110.4 2.0752-122.3 1.2671zm106-8.4413c8.525-0.53038 17.043-1.2443 18.93-1.5864l3.43-0.62211-2.43-1.9386c-6.0551-4.8306-15.254-14.486-16.928-17.768-1.0129-1.9855-2.1608-6.8484-2.5508-10.806l-0.70912-7.1965h-52.254-52.254l-0.60297 2.25c-0.33164 1.2375-0.60913 3.828-0.61664 5.7566-0.0338 8.6673-3.608 14.668-13.971 23.457-4.7213 4.0041-6.6156 6.1959-5.7658 6.6715 1.5707 0.879 32.579 2.841 50.723 3.2094 19.641 0.39877 57.124-0.31396 75-1.4261zm190.94-55.89c0.9977-0.53395 2.5431-2.7931 3.4343-5.0202 1.4675-3.6677 1.6202-17.673 1.6202-148.57v-144.53l-2.4546-2.4545-2.4545-2.4546h-246.09-246.09l-2.4545 2.4546-2.4546 2.4545v143.59c0 140.75 0.0388 143.66 1.9646 147.44 1.0805 2.118 3.218 4.7859 4.75 5.9285l2.7854 2.0775 242.82 0.0317c155.16 0.0202 243.47-0.31877 244.63-0.93915zm-482.95-152.03v-137h237 237v137 137h-237-237v-137zm467 0v-130h-230-230v130 130h230 230v-130z"/>
  </g>
 </g>
</svg>
